<svg width="214" height="50" viewBox="0 0 214 50" fill="none" xmlns="http://www.w3.org/2000/svg">
<path fill-rule="evenodd" clip-rule="evenodd" d="M6.63944 0.0453752C5.81368 0.177544 4.83691 0.471441 4.24615 0.765493C3.60429 1.08493 2.32705 2.05158 2.11968 2.37504C2.05406 2.47718 1.8978 2.66368 1.77227 2.7895C1.64674 2.91532 1.54406 3.08711 1.54406 3.17115C1.54406 3.25534 1.49202 3.34727 1.42825 3.37575C1.26149 3.45003 0.617622 4.73179 0.617622 4.98963C0.617622 5.10926 0.54814 5.20707 0.463217 5.20707C0.377367 5.20707 0.308811 5.61983 0.308811 6.13565C0.308811 6.65148 0.240255 7.06424 0.154406 7.06424C0.0523435 7.06424 0 13.0742 0 24.7847C0 36.4953 0.0523435 42.5052 0.154406 42.5052C0.240255 42.5052 0.308811 42.918 0.308811 43.4338C0.308811 43.9496 0.377367 44.3624 0.463217 44.3624C0.54814 44.3624 0.617622 44.5365 0.617622 44.7493C0.617622 44.9621 0.687105 45.1362 0.772028 45.1362C0.856951 45.1362 0.926433 45.2755 0.926433 45.4458C0.926433 45.616 0.995916 45.7553 1.08084 45.7553C1.16576 45.7553 1.23524 45.8636 1.23524 45.9961C1.23524 46.3154 3.44927 48.541 3.76672 48.541C3.90306 48.541 4.01454 48.6107 4.01454 48.6958C4.01454 48.7809 4.15351 48.8506 4.32336 48.8506C4.4932 48.8506 4.63217 48.9202 4.63217 49.0053C4.63217 49.0905 4.8349 49.1601 5.08257 49.1601C5.33024 49.1601 5.56184 49.2471 5.5972 49.3535C5.6917 49.6377 44.0269 49.6377 44.1214 49.3535C44.1568 49.2471 44.3884 49.1601 44.636 49.1601C44.8839 49.1601 45.0864 49.0905 45.0864 49.0053C45.0864 48.9202 45.2254 48.8506 45.3952 48.8506C45.5651 48.8506 45.7041 48.7809 45.7041 48.6958C45.7041 48.6107 45.843 48.541 46.0129 48.541C46.1827 48.541 46.3217 48.4714 46.3217 48.3863C46.3217 48.3012 46.3956 48.2315 46.4861 48.2315C46.7117 48.2315 48.1217 46.7619 48.5504 46.0798C48.7428 45.7737 49.0502 45.0991 49.2335 44.5808L49.5667 43.6386L49.5156 24.6162C49.4874 14.154 49.4096 5.36771 49.3425 5.091C49.2753 4.81443 49.1587 4.58801 49.0835 4.58801C49.0082 4.58801 48.9466 4.44873 48.9466 4.27848C48.9466 4.10824 48.8771 3.96896 48.7922 3.96896C48.7072 3.96896 48.637 3.88198 48.6361 3.7755C48.6331 3.42078 47.4808 2.1172 46.5599 1.4268C46.0596 1.05165 45.1933 0.582252 44.6349 0.383535L43.6196 0.0224701L25.3225 0.0029698C15.2591 -0.00770893 6.85175 0.0113271 6.63944 0.0453752ZM25.7857 7.52853C25.7857 7.61365 25.9942 7.6833 26.2489 7.6833C26.5037 7.6833 26.7122 7.75294 26.7122 7.83806C26.7122 7.92318 26.8028 7.99282 26.9137 7.99282C27.2248 7.99282 28.1401 8.92714 28.5264 9.6389C29.0032 10.5175 29.0238 12.5135 28.5644 13.3333C28.1687 14.0396 27.3795 14.8207 26.7883 15.0914C26.5341 15.2076 26.2056 15.3644 26.0581 15.4396C25.7105 15.6168 23.7785 15.6179 23.7785 15.4408C23.7785 15.3664 23.578 15.2652 23.3332 15.2161C22.8267 15.1146 21.308 13.7093 21.308 13.3422C21.308 13.209 21.2385 13.1 21.1536 13.1C21.0605 13.1 20.9992 12.4551 20.9992 11.475C20.9992 10.4949 21.0605 9.84999 21.1536 9.84999C21.2385 9.84999 21.308 9.75667 21.308 9.64246C21.308 9.34237 22.6218 7.99282 22.9139 7.99282C23.0497 7.99282 23.1608 7.92318 23.1608 7.83806C23.1608 7.75294 23.3345 7.6833 23.5469 7.6833C23.7592 7.6833 23.9329 7.61365 23.9329 7.52853C23.9329 7.44248 24.3447 7.37377 24.8593 7.37377C25.3739 7.37377 25.7857 7.44248 25.7857 7.52853ZM26.7122 17.5882C26.7122 17.6733 26.9901 17.743 27.3298 17.743C27.6695 17.743 27.9474 17.8126 27.9474 17.8977C27.9474 17.9829 28.1559 18.0525 28.4106 18.0525C28.6654 18.0525 28.8738 18.1221 28.8738 18.2073C28.8738 18.2924 29.0128 18.362 29.1827 18.362C29.3525 18.362 29.4915 18.4232 29.4915 18.4981C29.4915 18.5728 29.6999 18.7206 29.9547 18.8263C30.2095 18.932 30.4179 19.0752 30.4179 19.1442C30.4179 19.2132 30.561 19.3152 30.736 19.3709C31.2024 19.5193 32.8884 21.2762 32.8884 21.6138C32.8884 21.698 32.9579 21.7668 33.0428 21.7668C33.1277 21.7668 33.1972 21.8713 33.1972 21.999C33.1972 22.1267 33.2494 22.2317 33.313 22.2324C33.4517 22.2338 33.8148 22.9833 33.8148 23.2679C33.8148 23.3787 33.8843 23.4692 33.9692 23.4692C34.0541 23.4692 34.1236 23.6317 34.1236 23.8303C34.1236 24.029 34.1746 24.2426 34.237 24.3051C34.6796 24.7488 34.9108 28.4287 34.5206 28.8196C34.3342 29.0065 32.8271 29.0408 24.796 29.0408H15.292L15.1909 28.6367C15.0274 27.984 15.2479 24.998 15.5134 24.2674C15.844 23.358 16.3139 22.4481 16.8826 21.6161C17.4769 20.7468 18.9192 19.2906 19.1861 19.2906C19.2965 19.2906 19.4871 19.1513 19.6095 18.9811C19.732 18.8108 19.9557 18.6716 20.1068 18.6716C20.2579 18.6716 20.3815 18.6019 20.3815 18.5168C20.3815 18.4317 20.5205 18.362 20.6903 18.362C20.8602 18.362 20.9992 18.2924 20.9992 18.2073C20.9992 18.1221 21.2076 18.0525 21.4624 18.0525C21.7171 18.0525 21.9256 17.9829 21.9256 17.8977C21.9256 17.8126 22.2035 17.743 22.5432 17.743C22.8829 17.743 23.1608 17.6733 23.1608 17.5882C23.1608 17.4939 23.8557 17.4334 24.9365 17.4334C26.0173 17.4334 26.7122 17.4939 26.7122 17.5882ZM23.4696 21.6788C23.0875 21.7854 22.4969 22.0171 22.1572 22.1937C21.4505 22.5609 20.3815 23.5045 20.3815 23.761C20.3815 23.8558 20.3121 23.9335 20.2271 23.9335C20.1422 23.9335 20.0727 24.038 20.0727 24.1657C20.0727 24.2934 20.0032 24.3978 19.9183 24.3978C19.8334 24.3978 19.7639 24.5371 19.7639 24.7074C19.7639 24.8776 19.6903 25.0169 19.6004 25.0169C19.5105 25.0169 19.4798 25.0865 19.5323 25.1716C19.6594 25.3776 29.9454 25.3776 30.2635 25.1716C30.4179 25.0717 30.4307 25.0209 30.3021 25.0192C30.196 25.018 30.1091 24.8776 30.1091 24.7074C30.1091 24.5371 30.056 24.3978 29.9911 24.3978C29.9263 24.3978 29.7121 24.1367 29.5152 23.8175C28.9577 22.9136 27.6567 22.0389 26.3262 21.6732C25.3925 21.4166 24.4029 21.4185 23.4696 21.6788ZM20.6734 31.7878C20.8684 31.9369 21.1965 32.2199 21.4026 32.4169C22.2806 33.2565 24.2565 33.7575 25.7545 33.5201C26.8622 33.3446 28.0893 32.7573 28.7662 32.0788C29.0746 31.7699 29.4018 31.517 29.4933 31.517C29.688 31.517 30.4179 32.2174 30.4179 32.4044C30.4179 32.4745 30.5569 32.6324 30.7267 32.7551C30.8966 32.8778 31.0355 33.0519 31.0355 33.142C31.0355 33.2321 31.1745 33.4062 31.3443 33.5289C31.5142 33.6516 31.6531 33.8411 31.6531 33.95C31.6531 34.0588 31.7226 34.148 31.8075 34.148C31.8925 34.148 31.962 34.2543 31.962 34.3841C31.962 34.6506 30.6697 36.0051 30.4156 36.0051C30.3248 36.0051 30.1074 36.1389 29.9324 36.3023C29.7574 36.4657 29.3086 36.6898 28.9351 36.8003C28.5618 36.9108 28.2562 37.0557 28.2562 37.1222C28.2562 37.1888 28.0172 37.2433 27.7249 37.2433C27.4326 37.2433 27.1507 37.3129 27.0982 37.398C27.0417 37.4896 26.093 37.5528 24.773 37.5528C23.3894 37.5528 22.5432 37.4941 22.5432 37.398C22.5432 37.3129 22.3348 37.2433 22.08 37.2433C21.8252 37.2433 21.6168 37.1736 21.6168 37.0885C21.6168 37.0034 21.4083 36.9337 21.1536 36.9337C20.8988 36.9337 20.6903 36.8641 20.6903 36.779C20.6903 36.6938 20.5514 36.6242 20.3815 36.6242C20.2117 36.6242 20.0727 36.5592 20.0727 36.4798C20.0727 36.4004 19.9316 36.2907 19.759 36.2357C19.5863 36.1808 19.2769 35.9672 19.0711 35.7609C18.8654 35.5548 18.644 35.3861 18.5792 35.3861C18.331 35.3861 17.7918 34.5881 17.861 34.323C17.9009 34.1701 18.2064 33.7546 18.5399 33.3997C18.8735 33.0448 19.1463 32.7178 19.1463 32.6731C19.1463 32.5689 20.122 31.5417 20.2344 31.5277C20.2807 31.5218 20.4783 31.6388 20.6734 31.7878Z" fill="#041366"/>
<path d="M59 28.9418C59 27.0515 59.2798 25.4042 59.8394 24C60.4257 22.5688 61.1852 21.3806 62.1179 20.4354C63.0506 19.4903 64.1166 18.7747 65.3158 18.2886C66.5417 17.8025 67.7942 17.5595 69.0733 17.5595C72.058 17.5595 74.4164 18.4911 76.1486 20.3544C77.8808 22.1907 78.7469 24.9046 78.7469 28.4962C78.7469 28.8473 78.7336 29.2388 78.7069 29.6709C78.6803 30.0759 78.6536 30.4405 78.627 30.7646H65.1159C65.2492 32.0068 65.8221 32.9924 66.8348 33.7215C67.8475 34.4506 69.2066 34.8152 70.9121 34.8152C72.0047 34.8152 73.0707 34.7207 74.11 34.5316C75.1759 34.3156 76.042 34.0591 76.7083 33.762L77.5077 38.6633C77.1879 38.8253 76.7616 38.9873 76.2286 39.1494C75.6956 39.3114 75.096 39.4464 74.4298 39.5544C73.7902 39.6894 73.0973 39.7975 72.3511 39.8785C71.605 39.9595 70.8588 40 70.1126 40C68.2205 40 66.5683 39.7165 65.1559 39.1494C63.7702 38.5823 62.6109 37.8127 61.6782 36.8405C60.7722 35.8413 60.0926 34.6667 59.6396 33.3165C59.2132 31.9662 59 30.508 59 28.9418ZM72.9907 26.6329C72.9641 26.1198 72.8708 25.6203 72.7109 25.1342C72.5777 24.6481 72.3511 24.216 72.0314 23.838C71.7382 23.4599 71.3518 23.1494 70.8721 22.9063C70.4191 22.6633 69.8461 22.5418 69.1533 22.5418C68.487 22.5418 67.9141 22.6633 67.4344 22.9063C66.9547 23.1224 66.555 23.4194 66.2352 23.7975C65.9154 24.1755 65.6622 24.6211 65.4757 25.1342C65.3158 25.6203 65.1959 26.1198 65.1159 26.6329H72.9907Z" fill="#061423"/>
<path d="M88.4199 28.6177C88.4199 30.481 88.8329 31.9797 89.659 33.1139C90.4852 34.2481 91.711 34.8152 93.3366 34.8152C93.8696 34.8152 94.3626 34.8017 94.8156 34.7747C95.2686 34.7207 95.6417 34.6667 95.9349 34.6127V23.6354C95.5618 23.3924 95.0688 23.1899 94.4559 23.0278C93.8696 22.8658 93.27 22.7848 92.657 22.7848C89.8323 22.7848 88.4199 24.7291 88.4199 28.6177ZM101.891 38.7443C101.358 38.9063 100.745 39.0684 100.052 39.2304C99.3593 39.3654 98.6264 39.4869 97.8536 39.5949C97.1074 39.703 96.3346 39.784 95.5351 39.838C94.7623 39.919 94.0161 39.9595 93.2966 39.9595C91.5644 39.9595 90.0188 39.703 88.6597 39.1899C87.3006 38.6768 86.1547 37.9477 85.222 37.0025C84.2893 36.0304 83.5697 34.8692 83.0634 33.519C82.5837 32.1418 82.3439 30.6025 82.3439 28.9013C82.3439 27.173 82.5571 25.6203 82.9835 24.243C83.4098 22.8388 84.0228 21.6506 84.8222 20.6785C85.6217 19.7063 86.5944 18.9637 87.7403 18.4506C88.9129 17.9376 90.2453 17.681 91.7377 17.681C92.5638 17.681 93.2966 17.762 93.9362 17.9241C94.6024 18.0861 95.2686 18.3156 95.9349 18.6127V8.97215L101.891 8V38.7443Z" fill="#061423"/>
<path d="M125.416 38.7038C124.403 39.0008 123.097 39.2709 121.499 39.5139C119.9 39.784 118.221 39.919 116.462 39.919C114.676 39.919 113.184 39.6759 111.985 39.1899C110.812 38.7038 109.88 38.0287 109.187 37.1646C108.494 36.2734 108.001 35.2203 107.708 34.0051C107.415 32.7899 107.268 31.4532 107.268 29.9949V18.1266H113.224V29.2658C113.224 31.2101 113.477 32.6143 113.984 33.4785C114.49 34.3426 115.436 34.7747 116.822 34.7747C117.248 34.7747 117.701 34.7612 118.181 34.7342C118.66 34.6802 119.087 34.6262 119.46 34.5722V18.1266H125.416V38.7038Z" fill="#061423"/>
<path d="M146.796 22.1772C146.317 22.7173 145.664 23.4464 144.838 24.3646C144.038 25.2827 143.172 26.2954 142.239 27.4025C141.307 28.5097 140.361 29.6709 139.401 30.8861C138.469 32.1013 137.616 33.2759 136.843 34.4101H146.996V39.4329H129.608V35.8684C130.167 34.8962 130.834 33.8565 131.607 32.7494C132.406 31.6152 133.232 30.481 134.085 29.3468C134.964 28.2127 135.83 27.119 136.683 26.0658C137.536 24.9857 138.322 24.0135 139.042 23.1494H130.088V18.1266H146.796V22.1772Z" fill="#061423"/>
<path d="M168.942 38.7038C167.929 39.0008 166.623 39.2709 165.024 39.5139C163.425 39.784 161.747 39.919 159.988 39.919C158.202 39.919 156.71 39.6759 155.511 39.1899C154.338 38.7038 153.405 38.0287 152.713 37.1646C152.02 36.2734 151.527 35.2203 151.233 34.0051C150.94 32.7899 150.794 31.4532 150.794 29.9949V18.1266H156.75V29.2658C156.75 31.2101 157.003 32.6143 157.509 33.4785C158.016 34.3426 158.962 34.7747 160.347 34.7747C160.774 34.7747 161.227 34.7612 161.707 34.7342C162.186 34.6802 162.613 34.6262 162.986 34.5722V18.1266H168.942V38.7038Z" fill="#061423"/>
<path d="M180.489 25.8228C181.075 25.1747 181.675 24.4996 182.288 23.7975C182.927 23.0954 183.54 22.4067 184.126 21.7316C184.713 21.0295 185.259 20.3679 185.765 19.7468C186.298 19.1257 186.751 18.5857 187.124 18.1266H194.2C192.787 19.7738 191.402 21.3536 190.042 22.8658C188.71 24.3511 187.244 25.8903 185.645 27.4835C186.445 28.2127 187.271 29.0903 188.124 30.1165C188.976 31.1156 189.803 32.1553 190.602 33.2354C191.402 34.3156 192.134 35.3958 192.801 36.4759C193.467 37.5561 194.026 38.5418 194.479 39.4329H187.644C187.218 38.7308 186.725 37.9612 186.165 37.1241C185.632 36.2599 185.059 35.4093 184.446 34.5722C183.833 33.708 183.18 32.8844 182.487 32.1013C181.821 31.3181 181.155 30.6565 180.489 30.1165V39.4329H174.533V8.97215L180.489 8V25.8228Z" fill="#061423"/>
<path d="M205.326 35.2203C205.912 35.2203 206.472 35.2068 207.005 35.1797C207.538 35.1527 207.964 35.1122 208.284 35.0582V30.481C208.044 30.427 207.684 30.373 207.204 30.319C206.725 30.265 206.285 30.238 205.885 30.238C205.326 30.238 204.793 30.2785 204.286 30.3595C203.807 30.4135 203.38 30.535 203.007 30.7241C202.634 30.9131 202.341 31.1696 202.128 31.4937C201.915 31.8177 201.808 32.2228 201.808 32.7089C201.808 33.654 202.115 34.3156 202.727 34.6937C203.367 35.0447 204.233 35.2203 205.326 35.2203ZM204.846 17.5595C206.605 17.5595 208.071 17.762 209.243 18.1671C210.416 18.5722 211.348 19.1527 212.041 19.9089C212.761 20.665 213.267 21.5831 213.56 22.6633C213.853 23.7435 214 24.9451 214 26.2684V38.8253C213.147 39.0143 211.961 39.2304 210.442 39.4734C208.923 39.7435 207.085 39.8785 204.926 39.8785C203.567 39.8785 202.328 39.757 201.208 39.5139C200.116 39.2709 199.17 38.8793 198.37 38.3392C197.571 37.7722 196.958 37.043 196.532 36.1519C196.105 35.2608 195.892 34.1671 195.892 32.8709C195.892 31.6287 196.132 30.5755 196.612 29.7114C197.118 28.8473 197.784 28.1586 198.61 27.6456C199.436 27.1325 200.382 26.7679 201.448 26.5519C202.514 26.3089 203.62 26.1873 204.766 26.1873C205.539 26.1873 206.218 26.2278 206.805 26.3089C207.418 26.3629 207.911 26.4439 208.284 26.5519V25.9848C208.284 24.9586 207.977 24.135 207.364 23.5139C206.751 22.8928 205.686 22.5823 204.167 22.5823C203.154 22.5823 202.155 22.6633 201.169 22.8253C200.182 22.9603 199.33 23.1629 198.61 23.4329L197.851 18.5722C198.197 18.4641 198.624 18.3561 199.13 18.2481C199.663 18.1131 200.236 18.0051 200.849 17.9241C201.462 17.816 202.101 17.735 202.767 17.681C203.46 17.6 204.153 17.5595 204.846 17.5595Z" fill="#061423"/>
</svg>
