<svg width="20" height="20" viewBox="0 0 20 20" fill="none" xmlns="http://www.w3.org/2000/svg">
<path d="M18.9 5V4.85H18.75H16.3062C15.938 3.40671 14.6571 2.35 13.125 2.35C11.5929 2.35 10.312 3.40671 9.94382 4.85H1.25H1.1V5V6.25V6.4H1.25H9.94382C10.312 7.84329 11.5929 8.9 13.125 8.9C14.6571 8.9 15.938 7.84329 16.3062 6.4H18.75H18.9V6.25V5ZM1.1 15V15.15H1.25H3.69382C4.06196 16.5933 5.34286 17.65 6.875 17.65C8.40714 17.65 9.68804 16.5933 10.0562 15.15H18.75H18.9V15V13.75V13.6H18.75H10.0562C9.68804 12.1567 8.40714 11.1 6.875 11.1C5.34286 11.1 4.06196 12.1567 3.69382 13.6H1.25H1.1V13.75V15ZM13.125 7.35C12.1453 7.35 11.4 6.60466 11.4 5.625C11.4 4.64534 12.1453 3.9 13.125 3.9C14.1047 3.9 14.85 4.64534 14.85 5.625C14.85 6.60466 14.1047 7.35 13.125 7.35ZM6.875 12.65C7.85466 12.65 8.6 13.3953 8.6 14.375C8.6 15.3547 7.85466 16.1 6.875 16.1C5.89534 16.1 5.15 15.3547 5.15 14.375C5.15 13.3953 5.89534 12.65 6.875 12.65Z" fill="#5E5E5E" stroke="#5E5E5E" stroke-width="0.3"/>
</svg>
