<svg width="60" height="60" viewBox="0 0 60 60" fill="none" xmlns="http://www.w3.org/2000/svg">
<path d="M46.7696 9.66211C42.0232 5.6543 36.0116 3.68555 30 3.68555C23.9181 3.68555 17.9065 5.72473 13.2304 9.66211L10.6641 14.5841L15.1993 12.6154L17.9768 16.8691C18.2575 17.256 18.6798 17.5371 19.1715 17.6075C19.629 17.7129 20.1209 17.5724 20.5079 17.291C23.2502 15.2169 26.6251 14.1973 30 14.1973C31.0283 14.1973 35.3965 14.185 39.4921 17.291C39.9496 17.6427 40.6173 17.7129 40.8285 17.6075C41.3203 17.5371 41.7425 17.2561 42.0232 16.8691L44.8007 12.6154L49.3359 14.5841L46.7696 9.66211Z" fill="#50C5FF"/>
<path d="M49.3359 14.5841L44.8007 12.6154L42.0232 16.8691C41.7425 17.256 41.3202 17.5371 40.8285 17.6075C40.6173 17.7129 39.9496 17.6427 39.4921 17.291C35.3968 14.1852 31.0284 14.1973 30 14.1973V3.68555C36.0116 3.68555 42.0232 5.6543 46.7696 9.66211L49.3359 14.5841Z" fill="#488AFF"/>
<path d="M41.6289 33.6826H40.2626C39.5941 33.6826 38.9254 33.5372 38.3438 33.2464C37.617 32.8685 36.1343 32.229 34.3609 32.229C33.2852 32.229 32.2678 32.4615 31.4537 32.7814L30.0189 38.0233L28.5465 32.7815C27.7324 32.4616 26.715 32.2291 25.6393 32.2291C23.8659 32.2291 22.3833 32.8686 21.6855 33.2175C21.0748 33.5373 20.4062 33.6827 19.7376 33.6827H18.3713C17.5572 33.6827 16.9177 34.3222 16.9177 35.1363V52.5795C16.9177 53.3934 17.5572 54.0331 18.3713 54.0331H19.7376C20.8714 54.0331 21.9762 53.7713 22.9941 53.248C23.4881 53.0154 24.4764 52.5795 25.6393 52.5795C26.831 52.5795 27.9361 53.0445 28.5465 53.3934L29.9806 48.3312L31.4537 53.3934C32.0641 53.0445 33.1692 52.5795 34.3609 52.5795C35.5239 52.5795 36.5122 53.0155 37.0353 53.2772C38.0241 53.7713 39.1288 54.0331 40.2626 54.0331H41.6289C42.443 54.0331 43.0825 53.3934 43.0825 52.5795V35.1363C43.0825 34.3222 42.443 33.6826 41.6289 33.6826Z" fill="#EAF4FF"/>
<path d="M56.3673 29.9474V33.463C56.3673 34.4473 55.594 35.2208 54.6095 35.2208C53.625 35.2208 52.8517 34.4473 52.8517 33.463V29.9474C52.8517 23.2324 49.8635 16.834 44.8008 12.6154L46.7698 9.66211C52.8165 14.5842 56.3673 22.0372 56.3673 29.9474Z" fill="#334973"/>
<path d="M15.1993 12.6155C10.1366 16.834 7.14844 23.2324 7.14844 29.9474V33.463C7.14844 34.4473 6.37512 35.2208 5.39062 35.2208C4.40613 35.2208 3.63281 34.4473 3.63281 33.463V29.9474C3.63281 22.0372 7.18359 14.5841 13.2304 9.66211L15.1993 12.6155Z" fill="#4D628C"/>
<path d="M8.90625 56.3145H5.27344C2.36555 56.3145 0 53.9489 0 51.041V36.9785C0 34.0706 2.36555 31.7051 5.27344 31.7051H8.90625C9.87785 31.7051 10.6641 32.4913 10.6641 33.4629V54.5566C10.6641 55.5282 9.87785 56.3145 8.90625 56.3145Z" fill="#50C5FF"/>
<path d="M54.7266 56.3145H51.0938C50.1221 56.3145 49.3359 55.5282 49.3359 54.5566V33.4629C49.3359 32.4913 50.1221 31.7051 51.0938 31.7051H54.7266C57.6345 31.7051 60 34.0706 60 36.9785V51.041C60 53.949 57.6345 56.3145 54.7266 56.3145Z" fill="#488AFF"/>
<path d="M30 48.3982L31.4536 53.3933C32.064 53.0444 33.1691 52.5794 34.3608 52.5794C35.5238 52.5794 36.5121 53.0154 37.0352 53.2771C38.024 53.7712 39.1287 54.033 40.2625 54.033H41.6288C42.4429 54.033 43.0824 53.3933 43.0824 52.5794V35.1362C43.0824 34.3221 42.4429 33.6826 41.6288 33.6826H40.2625C39.5939 33.6826 38.9253 33.5372 38.3437 33.2464C37.6169 32.8685 36.1342 32.229 34.3608 32.229C33.2851 32.229 32.2677 32.4615 31.4536 32.7814L30.0188 38.0233L30 37.9565V48.3982Z" fill="#DCE7FA"/>
<path d="M37.2389 45.8055C37.0642 46.5906 36.2793 47.0847 35.4946 46.9103C33.8086 46.5323 32.2677 47.1429 31.4536 47.5788V53.3932C31.0757 53.5967 30.8723 53.7421 30.8723 53.7421C30.3488 54.12 29.6512 54.12 29.1277 53.7421C29.1277 53.7421 28.9244 53.5967 28.5463 53.3932V47.5788C27.7322 47.1428 26.1623 46.5322 24.5053 46.9103C23.7495 47.0847 22.9356 46.5905 22.7611 45.8055C22.5866 45.0206 23.0809 44.2358 23.8659 44.0613C25.6101 43.6834 27.2674 44.0031 28.5464 44.4682V41.7645C27.7323 41.3286 26.1623 40.7179 24.5054 41.096C23.7496 41.2704 22.9357 40.7762 22.7612 39.9912C22.5867 39.2063 23.081 38.4215 23.866 38.247C25.6102 37.84 27.2675 38.1888 28.5465 38.6539V32.7815C29.1279 32.985 29.6222 33.2175 30.0001 33.421C30.3781 33.2175 30.8724 32.985 31.4537 32.7815V38.6539C32.7327 38.1889 34.39 37.84 36.1343 38.247C36.9194 38.4215 37.4137 39.2063 37.2391 39.9912C37.0644 40.7762 36.2795 41.2704 35.4948 41.096C33.8088 40.718 32.2678 41.3287 31.4538 41.7645V44.4682C32.7328 44.0032 34.3901 43.6834 36.1344 44.0613C36.9191 44.2358 37.4134 45.0205 37.2389 45.8055Z" fill="#DCE7FA"/>
<path d="M30.8722 53.7421C30.8722 53.7421 31.0755 53.5967 31.4535 53.3932V47.5788C32.2677 47.1428 33.8086 46.5322 35.4946 46.9103C36.2792 47.0847 37.0642 46.5905 37.2388 45.8055C37.4133 45.0206 36.919 44.2357 36.134 44.0613C34.3898 43.6834 32.7325 44.0031 31.4535 44.4682V41.7645C32.2676 41.3286 33.8085 40.7179 35.4945 41.096C36.2791 41.2704 37.0641 40.7762 37.2387 39.9912C37.4132 39.2063 36.9189 38.4215 36.1339 38.247C34.3897 37.84 32.7324 38.1888 31.4534 38.6539V32.7815C30.872 32.985 30.3777 33.2175 29.9998 33.421V54.0256C30.3051 54.0255 30.6104 53.9311 30.8722 53.7421Z" fill="#BCC8E2"/>
</svg>
