<svg width="20" height="22" viewBox="0 0 20 22" fill="none" xmlns="http://www.w3.org/2000/svg">
<path d="M17.4168 21.8334H2.25016C1.67553 21.8334 1.12443 21.6051 0.718098 21.1988C0.311769 20.7925 0.0834961 20.2414 0.0834961 19.6667V4.50008C0.0834961 3.92545 0.311769 3.37435 0.718098 2.96802C1.12443 2.56169 1.67553 2.33341 2.25016 2.33341H4.41683V0.166748H6.5835V2.33341H13.0835V0.166748H15.2502V2.33341H17.4168C17.9915 2.33341 18.5426 2.56169 18.9489 2.96802C19.3552 3.37435 19.5835 3.92545 19.5835 4.50008V19.6667C19.5835 20.2414 19.3552 20.7925 18.9489 21.1988C18.5426 21.6051 17.9915 21.8334 17.4168 21.8334ZM2.25016 8.83342V19.6667H17.4168V8.83342H2.25016ZM2.25016 4.50008V6.66675H17.4168V4.50008H2.25016ZM7.45016 18.5834H5.50016V16.6334L10.0502 12.0942L12.0002 14.0442L7.45016 18.5834ZM12.6772 13.3639L10.7272 11.4139L12.2168 9.93083L14.1668 11.8808L12.6827 13.365L12.6772 13.3639Z" fill="#041366"/>
</svg>
