<svg width="17" height="17" viewBox="0 0 17 17" fill="none" xmlns="http://www.w3.org/2000/svg">
<path d="M16.3109 11.0388C16.3109 9.01474 15.1497 7.2083 13.4105 6.32959C13.3565 10.2105 10.2101 13.357 6.3291 13.411C7.20781 15.1501 9.01426 16.3113 11.0384 16.3113C11.9874 16.3113 12.9103 16.0586 13.7212 15.5784L16.2878 16.2883L15.5779 13.7216C16.0581 12.9108 16.3109 11.9879 16.3109 11.0388Z" fill="#353535"/>
<path d="M12.4565 6.22823C12.4565 2.79392 9.66256 0 6.22824 0C2.79392 0 0 2.79392 0 6.22823C0 7.34749 0.297922 8.43726 0.863651 9.394L0.0228979 12.4334L3.06248 11.5928C4.01921 12.1585 5.10898 12.4565 6.22824 12.4565C9.66256 12.4565 12.4565 9.66255 12.4565 6.22823ZM5.2725 4.7787H4.31676C4.31676 3.72465 5.17419 2.86722 6.22824 2.86722C7.28229 2.86722 8.13972 3.72465 8.13972 4.7787C8.13972 5.31369 7.91323 5.82789 7.51812 6.18928L6.70611 6.93247V7.67777H5.75037V6.5116L6.87287 5.48418C7.07347 5.30062 7.18398 5.05011 7.18398 4.7787C7.18398 4.25167 6.75527 3.82296 6.22824 3.82296C5.70122 3.82296 5.2725 4.25167 5.2725 4.7787ZM5.75037 8.63351H6.70611V9.58925H5.75037V8.63351Z" fill="#353535"/>
</svg>
