<svg width="14" height="14" viewBox="0 0 14 14" fill="none" xmlns="http://www.w3.org/2000/svg">
<path d="M1.47554 0.00369926C0.711746 -0.0514289 0 0.559706 0 1.36683V12.3325C0 13.0991 0.641605 13.7256 1.40952 13.701C1.41071 13.701 1.4119 13.701 1.41309 13.701C1.54375 13.6958 1.67594 13.6732 1.80383 13.6305L4.54169 12.7161C5.09834 12.5304 5.47929 12.008 5.47929 11.4181V10.0461H5.02432C3.77896 10.0462 2.73769 9.00496 2.73786 7.75961V5.93616C2.73769 4.69079 3.77896 3.6531 5.02432 3.65328H5.47929V2.2848C5.47929 1.69491 5.09898 1.16915 4.54169 0.983224L1.80383 0.0688225C1.6945 0.0323433 1.58465 0.0115747 1.47554 0.00369926ZM8.78453 2.75047C8.53784 2.73655 8.29093 2.79168 8.07174 2.90124C7.63335 3.12043 7.30275 3.5575 7.30275 4.10825V4.56679H5.02432C4.27283 4.56679 3.65137 5.18466 3.65137 5.93616V7.75961C3.65137 8.51109 4.27283 9.13255 5.02432 9.13255H7.30275V9.58752C7.30275 10.689 8.61699 11.3475 9.49821 10.6866L13.1532 7.94516C13.5084 7.67872 13.7118 7.25597 13.6991 6.8122C13.6872 6.39612 13.4875 6.00488 13.1532 5.75417L9.49821 3.01275C9.27791 2.84752 9.03122 2.76439 8.78453 2.75047Z" fill="#353535"/>
</svg>
