<svg width="60" height="60" viewBox="0 0 60 60" fill="none" xmlns="http://www.w3.org/2000/svg">
<path d="M58.2422 3.63281H1.75781C0.787031 3.63281 0 4.41984 0 5.39062V40.5469C0 41.5177 0.787031 42.3047 1.75781 42.3047H58.2422C59.213 42.3047 60 41.5177 60 40.5469V5.39062C60 4.41984 59.213 3.63281 58.2422 3.63281Z" fill="url(#paint0_linear_211_714)"/>
<path d="M1.75781 48.9924H8.78906C9.75984 48.9924 10.5469 49.7795 10.5469 50.7502C10.5469 51.721 9.75984 52.5081 8.78906 52.5081H1.75781C0.787031 52.5081 0 51.721 0 50.7502C0 49.7795 0.787031 48.9924 1.75781 48.9924Z" fill="#488AFF"/>
<path d="M15.8203 48.9924H58.2422C59.213 48.9924 60 49.7795 60 50.7502C60 51.721 59.213 52.5081 58.2422 52.5081H15.8203C14.8495 52.5081 14.0625 51.721 14.0625 50.7502C14.0625 49.7795 14.8495 48.9924 15.8203 48.9924Z" fill="#488AFF"/>
<path d="M37.8173 21.3965L23.7548 14.3653C23.2099 14.0928 22.5629 14.1219 22.0446 14.4423C21.5264 14.7626 21.2109 15.3283 21.2109 15.9376V30.0001C21.2109 30.6094 21.5264 31.1751 22.0446 31.4954C22.3269 31.6699 22.6474 31.7579 22.9688 31.7579C23.2373 31.7579 23.5068 31.6964 23.7548 31.5724L37.8173 24.5411C38.4129 24.2433 38.7891 23.6347 38.7891 22.9688C38.7891 22.303 38.4129 21.6944 37.8173 21.3965ZM12.3047 45.8204C9.39691 45.8204 7.03125 48.1861 7.03125 51.0938C7.03125 54.0016 9.39691 56.3673 12.3047 56.3673C15.2125 56.3673 17.5781 54.0016 17.5781 51.0938C17.5781 48.1861 15.2125 45.8204 12.3047 45.8204Z" fill="#BAFCFF"/>
<defs>
<linearGradient id="paint0_linear_211_714" x1="30" y1="52.8516" x2="30" y2="3.63281" gradientUnits="userSpaceOnUse">
<stop stop-color="#3A7BFD"/>
<stop offset="1" stop-color="#8DECFF"/>
</linearGradient>
</defs>
</svg>
