<svg width="60" height="44" viewBox="0 0 60 44" fill="none" xmlns="http://www.w3.org/2000/svg">
<path d="M49.9704 43.7281C49.5205 43.7281 49.0706 43.5565 48.7275 43.2132C48.041 42.5268 48.041 41.4138 48.7275 40.7273C59.0536 30.401 59.0535 13.599 48.7273 3.2725C48.0408 2.58613 48.0408 1.47308 48.7273 0.786594C49.4138 0.100107 50.5268 0.100107 51.2132 0.786594C56.8794 6.45298 60 13.9868 60 22.0001C60.0002 30.0134 56.8796 37.5471 51.2134 43.2133C50.8702 43.5565 50.4203 43.7281 49.9704 43.7281Z" fill="#00ACB3"/>
<path d="M10.0299 43.7283C9.58 43.7283 9.13011 43.5566 8.78699 43.2134C3.1206 37.5471 0 30.0134 0 22.0001C0 13.9869 3.1206 6.45314 8.78687 0.78675C9.47324 0.10038 10.5863 0.10038 11.2728 0.78675C11.9593 1.47312 11.9593 2.58617 11.2728 3.27266C0.946528 13.599 0.946528 30.4012 11.2728 40.7275C11.9593 41.4138 11.9593 42.5269 11.2728 43.2134C10.9297 43.5566 10.4798 43.7283 10.0299 43.7283Z" fill="#1DE8F1"/>
<path d="M43.3134 37.0714C42.8635 37.0714 42.4137 36.8999 42.0705 36.5565C41.384 35.8701 41.384 34.7571 42.0705 34.0706C48.7262 27.4149 48.7262 16.5852 42.0705 9.92928C41.384 9.2428 41.384 8.12986 42.0705 7.44338C42.757 6.75689 43.8701 6.75677 44.5564 7.44338C52.5829 15.47 52.5829 28.5301 44.5564 36.5565C44.2132 36.8999 43.7633 37.0714 43.3134 37.0714Z" fill="#76E2F8"/>
<path d="M16.6867 37.0714C16.2369 37.0714 15.7871 36.8998 15.4439 36.5566C11.5554 32.6684 9.41406 27.4988 9.41406 22.0001C9.41406 16.5013 11.5554 11.3316 15.4439 7.44333C16.1303 6.75696 17.2434 6.75673 17.9298 7.44333C18.6162 8.12982 18.6162 9.24275 17.9298 9.92924C14.7053 13.1535 12.9297 17.4404 12.9297 22.0001C12.9297 26.5596 14.7053 30.8464 17.9298 34.0704C18.6161 34.7569 18.6162 35.8698 17.9299 36.5565C17.5864 36.8998 17.1365 37.0714 16.6867 37.0714Z" fill="#A8EBFA"/>
<path d="M30.0001 10.8281C23.8399 10.8281 18.8281 15.8399 18.8281 22C18.8281 28.16 23.8399 33.1718 30.0001 33.1718C36.1602 33.1718 41.1718 28.16 41.1718 22C41.1718 15.8399 36.1602 10.8281 30.0001 10.8281Z" fill="#988FCC"/>
<path d="M30.0002 10.8281C30.0001 10.8281 30.0001 10.8281 30 10.8281V33.1718H30.0002C36.1603 33.1718 41.172 28.16 41.172 22C41.172 15.8399 36.1603 10.8281 30.0002 10.8281Z" fill="#6E61B7"/>
</svg>
