<svg width="17" height="17" viewBox="0 0 17 17" fill="none" xmlns="http://www.w3.org/2000/svg">
<path d="M12.893 9.00496V6.42646C12.893 5.17272 12.3949 3.97033 11.5084 3.0838C10.6219 2.19727 9.41946 1.69922 8.16572 1.69922C6.91197 1.69922 5.70958 2.19727 4.82305 3.0838C3.93652 3.97033 3.43848 5.17272 3.43848 6.42646V9.00496C3.43848 10.2587 3.93652 11.4611 4.82305 12.3476C5.70958 13.2342 6.91197 13.7322 8.16572 13.7322C9.41946 13.7322 10.6219 13.2342 11.5084 12.3476C12.3949 11.4611 12.893 10.2587 12.893 9.00496ZM6.57135 10.4188C6.6113 10.3786 6.65883 10.3466 6.7112 10.3248C6.76357 10.303 6.81974 10.2917 6.87647 10.2917C6.9332 10.2917 6.98937 10.303 7.04174 10.3248C7.09411 10.3466 7.14164 10.3786 7.18159 10.4188C7.31058 10.5485 7.46393 10.6514 7.63282 10.7216C7.80171 10.7919 7.98281 10.828 8.16572 10.828C8.34862 10.828 8.52973 10.7919 8.69862 10.7216C8.8675 10.6514 9.02085 10.5485 9.14984 10.4188C9.23077 10.3379 9.34052 10.2925 9.45496 10.2925C9.56941 10.2925 9.67916 10.3379 9.76009 10.4188C9.84101 10.4998 9.88647 10.6095 9.88647 10.724C9.88647 10.8384 9.84101 10.9482 9.76009 11.0291C8.26886 12.5031 5.86656 11.1236 6.57135 10.4188Z" fill="#353535"/>
<path d="M15.0412 5.56733H14.5513C14.339 4.02443 13.5753 2.61055 12.4014 1.58708C11.2274 0.56361 9.72267 -0.000244141 8.16523 -0.000244141C6.6078 -0.000244141 5.10302 0.56361 3.92909 1.58708C2.75515 2.61055 1.99145 4.02443 1.77916 5.56733H1.28925C0.947318 5.56733 0.619393 5.70316 0.377612 5.94494C0.135831 6.18672 0 6.51465 0 6.85658V9.43508C0 9.77701 0.135831 10.1049 0.377612 10.3467C0.619393 10.5885 0.947318 10.7243 1.28925 10.7243H2.57849C2.69247 10.7243 2.80178 10.679 2.88237 10.5985C2.96297 10.5179 3.00824 10.4086 3.00824 10.2946V5.99708C3.00957 5.89407 2.97385 5.79402 2.90759 5.71514C2.84133 5.63626 2.74894 5.58381 2.64725 5.56733C2.85532 4.25346 3.52537 3.05694 4.53688 2.193C5.5484 1.32907 6.83499 0.854407 8.16523 0.854407C9.49548 0.854407 10.7821 1.32907 11.7936 2.193C12.8051 3.05694 13.4752 4.25346 13.6832 5.56733C13.5815 5.58381 13.4891 5.63626 13.4229 5.71514C13.3566 5.79402 13.3209 5.89407 13.3222 5.99708V10.2946C13.3222 10.4086 13.3675 10.5179 13.4481 10.5985C13.5287 10.679 13.638 10.7243 13.752 10.7243C13.7523 11.8292 13.3656 12.8993 12.659 13.7488C11.9525 14.5982 10.9707 15.1733 9.88423 15.3742C9.90316 15.2222 9.88947 15.0678 9.84407 14.9214C9.79868 14.7751 9.72263 14.6401 9.62097 14.5254C9.51932 14.4108 9.39441 14.3191 9.25455 14.2565C9.11469 14.1939 8.96309 14.1618 8.80986 14.1623H7.95036C7.66542 14.1623 7.39215 14.2755 7.19066 14.477C6.98918 14.6785 6.87599 14.9518 6.87599 15.2367C6.87599 15.5216 6.98918 15.7949 7.19066 15.9964C7.39215 16.1979 7.66542 16.3111 7.95036 16.3111H9.02473C10.5064 16.3111 11.9274 15.7225 12.9752 14.6747C14.0229 13.627 14.6115 12.206 14.6115 10.7243H15.0412C15.3831 10.7243 15.7111 10.5885 15.9529 10.3467C16.1946 10.1049 16.3305 9.77701 16.3305 9.43508V6.85658C16.3305 6.51465 16.1946 6.18672 15.9529 5.94494C15.7111 5.70316 15.3831 5.56733 15.0412 5.56733Z" fill="#353535"/>
</svg>
