<svg width="60" height="60" viewBox="0 0 60 60" fill="none" xmlns="http://www.w3.org/2000/svg">
<g clip-path="url(#clip0_211_752)">
<path d="M10.1367 4.18945H49.8633V7.70508H10.1367V4.18945Z" fill="#8FFAFF"/>
<path d="M10.1367 52.2949H49.8633V55.8105H10.1367V52.2949Z" fill="#8FFAFF"/>
<path d="M30 4.18945H49.8633V7.70508H30V4.18945Z" fill="#3BE2E2"/>
<path d="M30 52.2949H49.8633V55.8105H30V52.2949Z" fill="#3BE2E2"/>
<path d="M44.1738 16.6406V23.1012H40.6582V20.1562H31.7578V40.1777H34.8047V43.6934H25.1953V40.1777H28.2422V20.1562H19.3418V23.1012H15.8262V16.6406H44.1738Z" fill="#455DA0"/>
<path d="M4.18945 10.1367H7.70508V49.3359H4.18945V10.1367Z" fill="#8FFAFF"/>
<path d="M52.2949 10.1367H55.8105V49.3359H52.2949V10.1367Z" fill="#3BE2E2"/>
<path d="M6.75785 13.5156C10.4841 13.5156 13.5156 10.4841 13.5156 6.75773C13.5156 3.03152 10.4841 0 6.75785 0C3.03152 0 0 3.03152 0 6.75785C0 10.4841 3.03152 13.5156 6.75785 13.5156Z" fill="#50C5FF"/>
<path d="M6.75785 46.4844C3.03152 46.4844 0 49.5159 0 53.2421C0 56.9684 3.03152 60 6.75785 60C10.4841 60 13.5156 56.9684 13.5156 53.2421C13.5156 49.5159 10.4841 46.4844 6.75785 46.4844Z" fill="#50C5FF"/>
<path d="M53.2421 13.5156C56.9684 13.5156 60 10.4841 60 6.75773C60 3.03152 56.9684 0 53.2421 0C49.5159 0 46.4844 3.03152 46.4844 6.75785C46.4844 10.4841 49.5159 13.5156 53.2421 13.5156Z" fill="#488AFF"/>
<path d="M53.2421 46.4844C49.5159 46.4844 46.4844 49.5159 46.4844 53.2422C46.4844 56.9684 49.5159 60.0001 53.2421 60.0001C56.9684 60 60 56.9684 60 53.2421C60 49.5159 56.9684 46.4844 53.2421 46.4844Z" fill="#488AFF"/>
<path d="M34.8047 43.6934H30V16.6406H44.1738V23.1012H40.6582V20.1562H31.7578V40.1777H34.8047V43.6934Z" fill="#1F4271"/>
</g>
<defs>
<clipPath id="clip0_211_752">
<rect width="60" height="60" fill="white"/>
</clipPath>
</defs>
</svg>
