<svg width="45" height="45" viewBox="0 0 45 45" fill="none" xmlns="http://www.w3.org/2000/svg">
<path d="M22.5 45C34.9264 45 45 34.9264 45 22.5C45 10.0736 34.9264 0 22.5 0C10.0736 0 0 10.0736 0 22.5C0 34.9264 10.0736 45 22.5 45Z" fill="url(#paint0_linear_178_1544)"/>
<path d="M13.0508 29.1376C13.1387 28.7152 13.5524 28.4442 13.9749 28.532C14.3973 28.6199 14.6684 29.0337 14.5804 29.4561C14.5298 29.6994 14.5901 29.9488 14.7459 30.1404C14.8361 30.2514 15.0374 30.4375 15.3709 30.4375H22.2579V26.6484C22.2579 26.217 22.6076 25.8672 23.0391 25.8672C23.4706 25.8672 23.8204 26.217 23.8204 26.6484V30.4375H30.6292C30.9627 30.4375 31.164 30.2513 31.2542 30.1404C31.41 29.9488 31.4703 29.6994 31.4197 29.4561C30.9945 27.4139 29.8477 25.6604 28.281 24.4404L28.1791 24.7875C27.997 25.4077 27.5212 25.8967 26.9062 26.0957C26.7092 26.1594 26.5063 26.1907 26.3047 26.1906C25.8772 26.1906 25.4555 26.05 25.1084 25.7809L23.0367 24.1748L20.951 25.7759C20.4344 26.1724 19.7575 26.2854 19.1402 26.0782C18.5229 25.8711 18.0513 25.3726 17.8785 24.7448C17.8777 24.7418 17.8769 24.7388 17.8761 24.7358L17.7831 24.3813C17.0416 24.9474 16.3865 25.6375 15.8513 26.4358C15.611 26.7942 15.1258 26.8899 14.7673 26.6496C14.409 26.4093 14.3132 25.924 14.5535 25.5656C15.8355 23.6537 17.6971 22.2637 19.8196 21.5652C18.526 20.5954 17.6876 19.05 17.6876 17.3125C17.6876 14.3832 20.0707 12 23.0001 12C25.9294 12 28.3126 14.3832 28.3126 17.3125C28.3126 19.0511 27.473 20.5973 26.178 21.5671C27.3644 21.9577 28.4777 22.565 29.452 23.3664C31.2384 24.8358 32.4804 26.8854 32.9493 29.1376C33.0963 29.8433 32.9202 30.5682 32.4664 31.1262C32.0148 31.6815 31.3452 32 30.6292 32H15.3709C14.6549 32 13.9853 31.6815 13.5337 31.1262C13.0798 30.5681 12.9038 29.8433 13.0508 29.1376ZM19.1715 23.5163L19.386 24.3337C19.4348 24.5056 19.5642 24.5724 19.6374 24.597C19.711 24.6216 19.856 24.6466 19.9995 24.5365L22.4772 22.6345C21.3129 22.7049 20.1913 23.0094 19.1715 23.5163ZM26.7678 17.2805C26.7678 15.2095 25.0889 13.5305 23.0178 13.5305C20.9467 13.5305 19.2678 15.2095 19.2678 17.2805C19.2678 19.3516 20.9467 21.0305 23.0178 21.0305C25.0889 21.0305 26.7678 19.3516 26.7678 17.2805ZM23.6079 22.6405L26.0657 24.5461C26.2077 24.6561 26.3519 24.6327 26.4253 24.609C26.4986 24.5853 26.6293 24.5197 26.6799 24.3474L26.9094 23.5653C25.8997 23.0472 24.7806 22.7241 23.6079 22.6405ZM17.2188 27.5469C16.7873 27.5469 16.4376 27.8966 16.4376 28.3281C16.4376 28.7596 16.7873 29.1094 17.2188 29.1094H19.8751C20.3065 29.1094 20.6563 28.7596 20.6563 28.3281C20.6563 27.8966 20.3065 27.5469 19.8751 27.5469H17.2188Z" fill="white"/>
<defs>
<linearGradient id="paint0_linear_178_1544" x1="33" y1="5" x2="9.5" y2="39" gradientUnits="userSpaceOnUse">
<stop stop-color="#6060EF"/>
<stop offset="1" stop-color="#8D60EF"/>
</linearGradient>
</defs>
</svg>
