<svg width="45" height="45" viewBox="0 0 45 45" fill="none" xmlns="http://www.w3.org/2000/svg">
<path d="M22.5 45C34.9264 45 45 34.9264 45 22.5C45 10.0736 34.9264 0 22.5 0C10.0736 0 0 10.0736 0 22.5C0 34.9264 10.0736 45 22.5 45Z" fill="url(#paint0_linear_188_1987)"/>
<path d="M33.0004 29.3333H11.6667C11.2985 29.3333 11 29.6317 11 30C11 31.1046 11.8954 32 13 32H31.667C32.7716 32 33.667 31.1046 33.667 30C33.667 29.6317 33.3685 29.3333 33.0004 29.3333ZM14.1224 15.9652L22.1225 18.632C22.1909 18.6547 22.2625 18.6665 22.3334 18.6665C22.4044 18.6665 22.476 18.6547 22.5444 18.632L28.3335 16.7023V20.6666C28.3335 21.0351 28.6317 21.3332 29.0002 21.3332C29.3687 21.3332 29.6668 21.035 29.6668 20.6666V16.2579L30.5445 15.9653C30.8166 15.8748 31.0002 15.6203 31.0002 15.3332C31.0002 15.0461 30.8166 14.7915 30.5445 14.701L22.5444 12.0342C22.4077 11.9886 22.2593 11.9886 22.1225 12.0342L14.1224 14.7008C13.8503 14.7914 13.6667 15.046 13.6667 15.333C13.6667 15.6201 13.8503 15.8747 14.1224 15.9652ZM21.7007 19.8969L17.6668 18.5522V20.6664C17.6668 20.8891 17.7781 21.0975 17.9637 21.2211C18.0522 21.2804 20.1564 22.6665 22.3335 22.6665C24.5106 22.6665 26.6148 21.2804 26.7034 21.2211C26.8889 21.0975 27.0002 20.8891 27.0002 20.6664V18.5521L22.9663 19.8969C22.7613 19.9653 22.5483 19.9998 22.3335 19.9998C22.1187 19.9998 21.9058 19.9653 21.7007 19.8969ZM32.3337 19.3331C32.3337 18.9649 32.0352 18.6665 31.667 18.6665H31.0004V20.6665C31.0004 21.7694 30.1032 22.6665 29.0003 22.6665C28.4839 22.6665 28.0172 22.4645 27.6618 22.142C27.5903 22.2063 27.5245 22.2763 27.443 22.3306C27.1897 22.5005 24.8752 23.9999 22.3335 23.9999C19.7918 23.9999 17.4773 22.5005 17.2221 22.3293C16.6661 21.9588 16.3334 21.3364 16.3334 20.6665V18.6665H13C12.6319 18.6665 12.3334 18.9649 12.3334 19.3331V27.9999H32.3337V19.3331H32.3337Z" fill="url(#paint1_linear_188_1987)"/>
<defs>
<linearGradient id="paint0_linear_188_1987" x1="22.5" y1="45" x2="22.5" y2="0" gradientUnits="userSpaceOnUse">
<stop stop-color="#ADDCFF"/>
<stop offset="0.5028" stop-color="#EAF6FF"/>
<stop offset="1" stop-color="#EAF6FF"/>
</linearGradient>
<linearGradient id="paint1_linear_188_1987" x1="22.3335" y1="12" x2="22.3335" y2="32" gradientUnits="userSpaceOnUse">
<stop stop-color="#5558FF"/>
<stop offset="1" stop-color="#00C0FF"/>
</linearGradient>
</defs>
</svg>
