<svg width="45" height="45" viewBox="0 0 45 45" fill="none" xmlns="http://www.w3.org/2000/svg">
<path d="M22.5 0C10.0931 0 0 10.0931 0 22.5C0 34.9069 10.0931 45 22.5 45C34.9069 45 45 34.9069 45 22.5C45 10.0931 34.9069 0 22.5 0Z" fill="url(#paint0_linear_188_2035)"/>
<path d="M31.5223 18.611L21.5815 28.5519C21.2832 28.8501 20.8917 29 20.5002 29C20.1087 29 19.7172 28.8501 19.4189 28.5519L14.4485 23.5815C13.8505 22.9835 13.8505 22.0169 14.4485 21.4189C15.0465 20.8209 16.013 20.8209 16.611 21.4189L20.5002 25.3081L29.3598 16.4485C29.9578 15.8505 30.9244 15.8505 31.5223 16.4485C32.1203 17.0465 32.1203 18.013 31.5223 18.611Z" fill="#FAFAFA"/>
<defs>
<linearGradient id="paint0_linear_188_2035" x1="1.01219e-05" y1="22.5" x2="45" y2="22.5" gradientUnits="userSpaceOnUse">
<stop stop-color="#00ED95"/>
<stop offset="1" stop-color="#00AAEF"/>
</linearGradient>
</defs>
</svg>
